<svg width="104" height="37" viewBox="0 0 104 37" fill="none" xmlns="http://www.w3.org/2000/svg">
<path d="M103.843 18.369C103.85 19.5658 103.469 20.7419 102.863 21.7633C102.254 22.79 101.452 23.6915 100.565 24.4837C98.7839 26.0731 96.7046 27.2856 94.5682 28.3227C90.2711 30.3829 85.6863 31.7761 81.053 32.8566C76.4129 33.9284 71.7034 34.6893 66.9661 35.1948C62.2289 35.7038 57.4657 35.9765 52.699 36.0304C47.9323 36.079 43.1587 35.9192 38.4024 35.504C33.6479 35.0801 28.9037 34.4218 24.2237 33.4056C21.8845 32.8914 19.5592 32.2955 17.2668 31.5746C16.1198 31.2133 14.9814 30.8224 13.8551 30.3951C12.7289 29.9678 11.613 29.5005 10.5197 28.9741C8.3382 27.9249 6.20523 26.6985 4.33391 25.0447C3.40171 24.2196 2.54402 23.2694 1.87693 22.1542C1.54598 21.5965 1.26701 20.9938 1.07468 20.3562C0.880619 19.7187 0.774923 19.0447 0.774923 18.3707C0.77319 17.6967 0.880618 17.0227 1.07295 16.3834C1.26528 15.7442 1.54425 15.1431 1.87519 14.5855C2.54229 13.4702 3.39998 12.52 4.33217 11.6932C6.2035 10.0394 8.33646 8.81301 10.5179 7.76378C12.7046 6.71455 14.9727 5.88594 17.2634 5.15982C19.5558 4.43891 21.8811 3.84308 24.2202 3.32889C28.9003 2.30919 33.6444 1.6543 38.4007 1.2287C43.157 0.811787 47.9306 0.653708 52.699 0.702348C57.4657 0.757936 62.2289 1.02892 66.9661 1.53964C71.7034 2.04515 76.4129 2.80601 81.053 3.87955C83.3714 4.41806 85.6725 5.03822 87.9354 5.77997C90.1966 6.52173 92.4214 7.38335 94.5682 8.4152C96.7046 9.45401 98.7839 10.6648 100.565 12.2543C101.452 13.0464 102.254 13.948 102.863 14.9746C103.471 15.996 103.852 17.1721 103.843 18.369ZM103.843 18.369C103.845 17.1721 103.46 15.9995 102.849 14.9816C102.237 13.9584 101.433 13.0638 100.544 12.2751C98.7596 10.6961 96.6804 9.4957 94.5405 8.46732C93.4697 7.95312 92.3728 7.49105 91.2622 7.07066C90.1515 6.64854 89.027 6.2629 87.8938 5.90505C85.6274 5.19283 83.3229 4.6022 81.0045 4.09322C76.3609 3.08395 71.6479 2.43079 66.9193 2.01041C62.1891 1.59871 57.4414 1.43889 52.6973 1.48927C47.9531 1.54312 43.2159 1.81585 38.5064 2.32309C33.7969 2.82512 29.1168 3.58424 24.5148 4.64563C19.9214 5.7157 15.3817 7.10193 11.166 9.12222C9.07113 10.1384 7.0456 11.3266 5.35101 12.8397C4.50545 13.5936 3.75865 14.4413 3.20591 15.3741C2.65318 16.3052 2.32743 17.3354 2.33089 18.3707C2.32396 19.4078 2.65145 20.4361 3.20418 21.369C3.75692 22.3018 4.50371 23.1495 5.34928 23.9035C7.04386 25.4182 9.0694 26.6047 11.1642 27.6209C13.2678 28.6337 15.4614 29.4849 17.6966 30.2162C19.9335 30.9493 22.212 31.5642 24.5113 32.0992C29.1134 33.1641 33.7934 33.9197 38.5029 34.4235C43.2124 34.9325 47.9514 35.2017 52.6955 35.2573C57.438 35.306 62.1873 35.1479 66.9176 34.7345C71.6444 34.3123 76.3591 33.6609 81.0028 32.6499C83.3229 32.1409 85.6257 31.5503 87.8921 30.8363C90.1567 30.1189 92.3954 29.3025 94.5387 28.2741C96.6769 27.2457 98.7579 26.0453 100.543 24.4663C101.431 23.6794 102.235 22.783 102.847 21.7598C103.459 20.7419 103.843 19.5693 103.842 18.3724L103.843 18.369Z" fill="url(#paint0_linear_160_333)"/>
<defs>
<linearGradient id="paint0_linear_160_333" x1="19.8035" y1="44.5492" x2="85.2755" y2="-8.2475" gradientUnits="userSpaceOnUse">
<stop stop-color="#2E660D"/>
<stop offset="1" stop-color="#9DDC63"/>
</linearGradient>
</defs>
</svg>
