<svg width="72" height="26" viewBox="0 0 72 26" fill="none" xmlns="http://www.w3.org/2000/svg">
<path d="M72.0082 13.0805C72.0134 13.9056 71.7518 14.7186 71.3325 15.4256C70.9131 16.1343 70.3604 16.758 69.747 17.3052C68.5185 18.4048 67.0821 19.2421 65.6076 19.9612C62.6412 21.3874 59.479 22.362 56.2804 23.1159C53.0784 23.8646 49.8261 24.4083 46.5547 24.7696C43.2834 25.1362 39.993 25.3411 36.6973 25.395C30.1113 25.4905 23.4854 25.0354 16.9912 23.6648C15.3712 23.3139 13.758 22.9039 12.1674 22.4089C10.5785 21.9086 8.99999 21.3423 7.47694 20.6127C5.95736 19.8831 4.46896 19.0301 3.14864 17.8663C2.49194 17.2843 1.88203 16.6138 1.4038 15.8147C0.927303 15.0226 0.605018 14.0654 0.606751 13.0805C0.601553 12.0938 0.925572 11.1384 1.40207 10.3445C1.88029 9.54541 2.49021 8.87314 3.1469 8.29294C4.46549 7.12906 5.95562 6.27613 7.47521 5.54654C8.99653 4.81521 10.575 4.24717 12.1657 3.74861C13.758 3.25353 15.3694 2.84356 16.9912 2.49266C23.4854 1.12033 30.1113 0.66694 36.6973 0.762482C39.993 0.816333 43.2834 1.02132 46.5547 1.38959C49.8261 1.75265 53.0784 2.29463 56.2804 3.04507C59.479 3.79899 62.6412 4.77351 65.6076 6.20144C67.0821 6.92061 68.5185 7.75791 69.747 8.85751C70.3604 9.40471 70.9131 10.0283 71.3325 10.7371C71.7518 11.4441 72.0134 12.2553 72.0082 13.0822V13.0805ZM72.0082 13.0805C72.0082 12.2536 71.7414 11.4458 71.3203 10.7423C70.8976 10.037 70.3431 9.4186 69.728 8.87661C68.496 7.78743 67.0596 6.96056 65.5833 6.25181C64.1036 5.54133 62.5546 4.98545 60.9916 4.49384C59.4253 4.00571 57.8347 3.60269 56.2336 3.257C49.814 1.90204 43.2366 1.45038 36.6991 1.54766C33.4277 1.60151 30.1616 1.8065 26.9179 2.16956C23.6743 2.52914 20.4532 3.06765 17.2875 3.80767C14.1288 4.55116 11.0099 5.51875 8.12671 6.90498C6.69376 7.60157 5.31279 8.41454 4.1692 9.43945C3.59914 9.94843 3.10012 10.5182 2.73625 11.1332C2.37065 11.7498 2.16619 12.4134 2.16792 13.0805C2.16273 13.7475 2.37065 14.4128 2.73452 15.0278C3.09839 15.6445 3.59741 16.2125 4.16747 16.7232C5.31106 17.7464 6.69202 18.5611 8.12497 19.2577C11.0065 20.6474 14.1271 21.6115 17.2858 22.3567C20.4497 23.1002 23.6726 23.637 26.9162 23.9966C30.1598 24.3614 33.426 24.5646 36.6973 24.6185C43.2349 24.714 49.8139 24.2606 56.2319 22.9057C57.8329 22.5583 59.4236 22.1552 60.9899 21.6671C62.5528 21.1755 64.1019 20.6196 65.5816 19.9091C67.0579 19.2004 68.4943 18.3735 69.7262 17.2843C70.3396 16.7423 70.8958 16.1239 71.3186 15.4186C71.7414 14.7168 72.0082 13.9073 72.0065 13.0805H72.0082Z" fill="url(#paint0_linear_160_334)"/>
<defs>
<linearGradient id="paint0_linear_160_334" x1="13.7303" y1="31.2144" x2="59.3089" y2="-5.53917" gradientUnits="userSpaceOnUse">
<stop stop-color="#2E660D"/>
<stop offset="1" stop-color="#9DDC63"/>
</linearGradient>
</defs>
</svg>
