<svg width="38" height="27" viewBox="0 0 38 27" fill="none" xmlns="http://www.w3.org/2000/svg">
<path d="M20.5817 1.302C19.6054 0.325686 18.0225 0.325686 17.0462 1.302L1.1363 17.2119C0.159985 18.1882 0.159985 19.7711 1.1363 20.7474C2.11261 21.7237 3.69552 21.7237 4.67183 20.7474L18.814 6.6053L32.9561 20.7474C33.9324 21.7237 35.5153 21.7237 36.4916 20.7474C37.4679 19.7711 37.4679 18.1882 36.4916 17.2119L20.5817 1.302ZM16.314 24.4186C16.314 25.7993 17.4333 26.9186 18.814 26.9186C20.1947 26.9186 21.314 25.7993 21.314 24.4186H16.314ZM16.314 3.06976V24.4186H21.314V3.06976H16.314Z" fill="#D9D9D9"/>
</svg>
